<svg width="40" height="40" viewBox="0 0 40 40" fill="none" xmlns="http://www.w3.org/2000/svg">
<circle cx="20" cy="20" r="20" fill="#FFFDFD"/>
<path d="M25.9709 8.74121C24.9121 8.62478 23.8481 8.5681 22.7834 8.57143C19.2537 8.57143 17.0601 10.9027 17.0601 14.6555V17.2033H14.0951C13.9559 17.2033 13.8224 17.2607 13.724 17.3627C13.6256 17.4648 13.5703 17.6032 13.5703 17.7475V21.9378C13.5703 22.0821 13.6256 22.2205 13.724 22.3226C13.8224 22.4246 13.9559 22.482 14.0951 22.482H17.0601V30.8842C17.0601 31.0286 17.1154 31.167 17.2138 31.269C17.3122 31.3711 17.4457 31.4284 17.5849 31.4284H21.7601C21.8992 31.4284 22.0327 31.3711 22.1311 31.269C22.2295 31.167 22.2848 31.0286 22.2848 30.8842V22.482H25.2404C25.3678 22.482 25.4909 22.434 25.5867 22.3469C25.6825 22.2598 25.7444 22.1395 25.761 22.0085L26.2826 17.8183C26.2923 17.7415 26.2861 17.6634 26.2644 17.5893C26.2427 17.5152 26.2059 17.4467 26.1567 17.3885C26.1074 17.3303 26.0467 17.2837 25.9786 17.2517C25.9106 17.2198 25.8367 17.2033 25.762 17.2033H22.2848V15.0712C22.2848 14.0155 22.4895 13.5747 23.7626 13.5747H25.9027C26.0419 13.5747 26.1753 13.5174 26.2738 13.4153C26.3722 13.3133 26.4275 13.1748 26.4275 13.0305V9.28105C26.4275 9.14893 26.3812 9.0213 26.2972 8.92197C26.2132 8.82264 26.0972 8.75839 25.9709 8.74121ZM25.3779 12.4852L23.7616 12.4863C21.4977 12.4863 21.2353 13.9622 21.2353 15.0712V17.7486C21.2353 17.8928 21.2904 18.031 21.3886 18.133C21.4868 18.2351 21.62 18.2925 21.759 18.2928H25.1659L24.7786 21.3947H21.7601C21.6209 21.3947 21.4874 21.452 21.389 21.5541C21.2906 21.6561 21.2353 21.7945 21.2353 21.9389V30.339H18.1097V21.9389C18.1097 21.7945 18.0544 21.6561 17.956 21.5541C17.8576 21.452 17.7241 21.3947 17.5849 21.3947H14.6209V18.2928H17.5849C17.7241 18.2928 17.8576 18.2355 17.956 18.1334C18.0544 18.0314 18.1097 17.8929 18.1097 17.7486V14.6555C18.1097 11.5275 19.8572 9.6598 22.7834 9.6598C23.8424 9.6598 24.7985 9.71966 25.3779 9.77191V12.4852Z" fill="url(#paint0_linear_329_232)"/>
<defs>
<linearGradient id="paint0_linear_329_232" x1="13.5055" y1="31.4232" x2="26.5587" y2="31.3339" gradientUnits="userSpaceOnUse">
<stop stop-color="#296BF6"/>
<stop offset="1" stop-color="#123581"/>
</linearGradient>
</defs>
</svg>
