<svg width="40" height="40" viewBox="0 0 40 40" fill="none" xmlns="http://www.w3.org/2000/svg">
<circle cx="20" cy="20" r="20" fill="#FFFDFD"/>
<path d="M32.6532 8.71618C32.5711 8.64519 32.4711 8.59802 32.3641 8.57977C32.2571 8.56151 32.1471 8.57287 32.0461 8.61261L7.9209 18.0539C7.67497 18.1494 7.46672 18.3222 7.32756 18.5463C7.1884 18.7704 7.12586 19.0337 7.14937 19.2965C7.17288 19.5592 7.28117 19.8072 7.4579 20.0031C7.63464 20.199 7.87025 20.3321 8.12923 20.3824L14.7647 21.6847V29.0463C14.7646 29.3311 14.8497 29.6094 15.009 29.8455C15.1683 30.0816 15.3946 30.2647 15.6587 30.3712C15.8286 30.4394 16.0101 30.4746 16.1932 30.4748C16.3849 30.4744 16.5745 30.4354 16.7508 30.3601C16.9271 30.2848 17.0864 30.1749 17.2193 30.0367L20.5525 26.5845L25.6714 31.0736C25.9309 31.3025 26.2646 31.4294 26.6106 31.4307C26.7617 31.4301 26.9119 31.4064 27.0558 31.3605C27.2915 31.2859 27.5035 31.1508 27.6706 30.9686C27.8377 30.7864 27.9541 30.5636 28.0082 30.3224L32.8437 9.29949C32.8679 9.19413 32.863 9.08416 32.8294 8.9814C32.7959 8.87863 32.735 8.78694 32.6532 8.71618ZM8.09828 19.211C8.09129 19.1534 8.10427 19.0952 8.13503 19.046C8.16579 18.9968 8.21248 18.9597 8.26732 18.9408L29.0581 10.8042L15.1301 20.7859L8.31374 19.4479C8.25597 19.4394 8.20292 19.4112 8.16363 19.368C8.12434 19.3248 8.10124 19.2693 8.09828 19.211ZM16.5348 29.3749C16.469 29.4427 16.3845 29.4894 16.292 29.509C16.1996 29.5286 16.1034 29.5203 16.0157 29.485C15.928 29.4498 15.8527 29.3893 15.7995 29.3111C15.7464 29.233 15.7176 29.1408 15.717 29.0463V22.3442L19.8335 25.9512L16.5348 29.3749ZM27.0796 30.1058C27.0612 30.1866 27.022 30.2612 26.9659 30.3223C26.9098 30.3833 26.8387 30.4286 26.7597 30.4538C26.6807 30.4789 26.5965 30.483 26.5154 30.4656C26.4344 30.4482 26.3593 30.4099 26.2975 30.3546L16.0063 21.3299L31.6842 10.0947L27.0796 30.1058Z" fill="url(#paint0_linear_329_229)"/>
<defs>
<linearGradient id="paint0_linear_329_229" x1="7.01492" y1="31.4255" x2="33.1175" y2="31.0684" gradientUnits="userSpaceOnUse">
<stop stop-color="#296BF6"/>
<stop offset="1" stop-color="#123581"/>
</linearGradient>
</defs>
</svg>
