<svg width="50" height="50" viewBox="0 0 50 50" fill="none" xmlns="http://www.w3.org/2000/svg">
<g id="Group 4">
<circle id="Ellipse 9" cx="25" cy="25" r="25" fill="url(#paint0_linear_2001_612)"/>
<path id="Vector" d="M37.24 33.5885C37.0478 33.5893 36.8576 33.5511 36.6803 33.4761C36.503 33.4011 36.342 33.2907 36.2066 33.1514C36.0712 33.012 35.964 32.8463 35.8911 32.6638C35.8182 32.4813 35.7811 32.2856 35.7819 32.0878L35.8356 16.5638L15.5116 37.4817C15.2364 37.7649 14.8639 37.9249 14.476 37.9262C14.0882 37.9276 13.7167 37.7704 13.4434 37.4891C13.1701 37.2078 13.0174 36.8255 13.0187 36.4263C13.0201 36.0272 13.1754 35.6438 13.4506 35.3605L33.7747 14.4426L18.6914 14.4979C18.3034 14.4993 17.9317 14.342 17.6583 14.0605C17.3848 13.7791 17.2319 13.3966 17.2333 12.9972C17.2346 12.5978 17.3901 12.2142 17.6655 11.9308C17.9408 11.6473 18.3135 11.4873 18.7016 11.486L37.3149 11.4193C37.5071 11.4185 37.6973 11.4567 37.8746 11.5317C38.0519 11.6068 38.2129 11.7171 38.3483 11.8565C38.4837 11.9959 38.591 12.1615 38.6638 12.344C38.7367 12.5265 38.7738 12.7223 38.773 12.9201L38.7083 32.0773C38.7078 32.2751 38.6693 32.4711 38.5952 32.6541C38.5211 32.8372 38.4128 33.0036 38.2764 33.144C38.14 33.2843 37.9783 33.3958 37.8005 33.4721C37.6226 33.5484 37.4322 33.5879 37.24 33.5885Z" fill="#F3F3F3"/>
</g>
<defs>
<linearGradient id="paint0_linear_2001_612" x1="-0.25203" y1="49.9886" x2="50.5051" y2="49.3712" gradientUnits="userSpaceOnUse">
<stop stop-color="#296BF6"/>
<stop offset="1" stop-color="#123581"/>
</linearGradient>
</defs>
</svg>
