<svg width="51" height="50" viewBox="0 0 51 50" fill="none" xmlns="http://www.w3.org/2000/svg">
<g id="Group 4">
<circle id="Ellipse 9" cx="25.5" cy="25" r="25" fill="#F3F3F3"/>
<path id="Vector" d="M37.74 33.5885C37.5478 33.5893 37.3576 33.5511 37.1803 33.4761C37.003 33.4011 36.842 33.2907 36.7066 33.1514C36.5712 33.012 36.464 32.8463 36.3911 32.6638C36.3182 32.4813 36.2811 32.2856 36.2819 32.0878L36.3356 16.5638L16.0116 37.4817C15.7364 37.7649 15.3639 37.9249 14.976 37.9262C14.5882 37.9276 14.2167 37.7704 13.9434 37.4891C13.6701 37.2078 13.5174 36.8255 13.5187 36.4263C13.5201 36.0272 13.6754 35.6438 13.9506 35.3605L34.2747 14.4426L19.1914 14.4979C18.8034 14.4993 18.4317 14.342 18.1583 14.0605C17.8848 13.7791 17.7319 13.3966 17.7333 12.9972C17.7346 12.5978 17.8901 12.2142 18.1655 11.9308C18.4408 11.6473 18.8135 11.4873 19.2016 11.486L37.8149 11.4193C38.0071 11.4185 38.1973 11.4567 38.3746 11.5317C38.5519 11.6068 38.7129 11.7171 38.8483 11.8565C38.9837 11.9959 39.091 12.1615 39.1638 12.344C39.2367 12.5265 39.2738 12.7223 39.273 12.9201L39.2083 32.0773C39.2078 32.2751 39.1693 32.4711 39.0952 32.6541C39.0211 32.8372 38.9128 33.0036 38.7764 33.144C38.64 33.2843 38.4783 33.3958 38.3005 33.4721C38.1226 33.5484 37.9322 33.5879 37.74 33.5885Z" fill="url(#paint0_linear_2001_932)"/>
</g>
<defs>
<linearGradient id="paint0_linear_2001_932" x1="3.5399" y1="26.7698" x2="25.2705" y2="47.4626" gradientUnits="userSpaceOnUse">
<stop stop-color="#296BF6"/>
<stop offset="1" stop-color="#123581"/>
</linearGradient>
</defs>
</svg>
