<svg width="12" height="12" viewBox="0 0 12 12" fill="none" xmlns="http://www.w3.org/2000/svg">
<g id="Group 86">
<path id="Vector" d="M8.08008 1.47049C8.88042 0.666825 10.0513 0.650082 10.6993 1.30082C11.349 1.95268 11.3317 3.13138 10.5302 3.93504L9.17789 5.29289C9.10175 5.37194 9.0597 5.47774 9.06081 5.58749C9.06191 5.69724 9.10608 5.80217 9.18381 5.87967C9.26153 5.95717 9.36658 6.00104 9.47634 6.00183C9.5861 6.00263 9.69177 5.96028 9.77061 5.88392L11.1235 4.52607C12.19 3.45508 12.324 1.74563 11.2926 0.709799C10.2601 -0.326588 8.55392 -0.191528 7.48625 0.879461L4.78163 3.59572C3.71507 4.66671 3.58113 6.37616 4.61252 7.41143C4.65104 7.45149 4.69716 7.48348 4.74817 7.50553C4.79918 7.52757 4.85408 7.53924 4.90965 7.53985C4.96522 7.54046 5.02036 7.53 5.07185 7.50908C5.12333 7.48815 5.17014 7.45718 5.20953 7.41798C5.24892 7.37877 5.28011 7.33212 5.30128 7.28073C5.32244 7.22935 5.33317 7.17426 5.33282 7.11869C5.33247 7.06312 5.32106 7.00817 5.29925 6.95705C5.27744 6.90594 5.24567 6.85967 5.2058 6.82096C4.55615 6.16911 4.57401 4.99041 5.3749 4.18675L8.08008 1.47049Z" fill="url(#paint0_linear_418_1125)"/>
<path id="Vector_2" d="M7.3869 4.58796C7.30844 4.50929 7.20195 4.465 7.09085 4.46484C6.97975 4.46469 6.87313 4.50867 6.79446 4.58712C6.71578 4.66557 6.6715 4.77206 6.67134 4.88316C6.67118 4.99426 6.71517 5.10087 6.79362 5.17954C7.44326 5.8314 7.42596 7.00954 6.62451 7.81376L3.91933 10.5295C3.11844 11.3331 1.94752 11.3499 1.29955 10.6991C0.649901 10.0473 0.667761 8.86856 1.46865 8.0649L2.82152 6.70705C2.86033 6.6681 2.89109 6.62188 2.91203 6.57104C2.93298 6.5202 2.94371 6.46574 2.9436 6.41075C2.9435 6.35577 2.93257 6.30134 2.91143 6.25058C2.89029 6.19982 2.85936 6.15372 2.82041 6.11491C2.78145 6.0761 2.73523 6.04535 2.68439 6.0244C2.63355 6.00346 2.57908 5.99273 2.5241 5.99283C2.46911 5.99294 2.41468 6.00387 2.36392 6.02501C2.31316 6.04614 2.26706 6.07707 2.22825 6.11603L0.875379 7.47388C-0.191177 8.54542 -0.325124 10.2543 0.70627 11.2901C1.73878 12.3271 3.44494 12.1915 4.51261 11.1205L7.21779 8.40423C8.28434 7.3338 8.41829 5.62323 7.3869 4.58796Z" fill="url(#paint1_linear_418_1125)"/>
</g>
<defs>
<linearGradient id="paint0_linear_418_1125" x1="3.86546" y1="7.53815" x2="12.0804" y2="7.43091" gradientUnits="userSpaceOnUse">
<stop stop-color="#296BF6"/>
<stop offset="1" stop-color="#123581"/>
</linearGradient>
<linearGradient id="paint1_linear_418_1125" x1="-0.0407944" y1="11.9982" x2="8.17473" y2="11.8909" gradientUnits="userSpaceOnUse">
<stop stop-color="#296BF6"/>
<stop offset="1" stop-color="#123581"/>
</linearGradient>
</defs>
</svg>
