<svg width="117" height="91" viewBox="0 0 117 91" fill="none" xmlns="http://www.w3.org/2000/svg">
<g id="Group 120">
<path id="Star 6" d="M82.3886 7.61294L78.7505 31.458C77.9963 36.4008 81.0088 41.1409 85.8041 42.5569L108.938 49.3879L85.0926 45.7498C80.1498 44.9957 75.4097 48.0082 73.9937 52.8034L67.1627 75.937L70.8008 52.0919C71.5549 47.1491 68.5424 42.409 63.7472 40.993L40.6136 34.162L64.4587 37.8001C69.4015 38.5542 74.1416 35.5418 75.5576 30.7465L82.3886 7.61294Z" fill="#FFD500"/>
<path id="Star 7" d="M17.8418 46.037L22.977 54.668C25.5335 58.965 30.8709 60.7133 35.4742 58.7617L44.7208 54.8415L36.0897 59.9767C31.7927 62.5333 30.0444 67.8706 31.9961 72.474L35.9162 81.7205L30.781 73.0894C28.2245 68.7925 22.8871 67.0442 18.2838 68.9958L9.03724 72.916L17.6683 67.7808C21.9653 65.2242 23.7136 59.8868 21.7619 55.2835L17.8418 46.037Z" fill="#FFD500"/>
</g>
</svg>
